<mxfile host="app.diagrams.net" modified="2023-06-07T06:56:54.085Z" agent="Mozilla/5.0 (Windows NT 10.0; Win64; x64) AppleWebKit/537.36 (KHTML, like Gecko) Chrome/114.0.0.0 Safari/537.36" etag="Hw0f0GxUO5sQHShHUtzH" version="21.3.7">
  <diagram name="Página-1" id="altKlWIEwy7CdVfgzB5W">
    <mxGraphModel dx="1509" dy="834" grid="1" gridSize="10" guides="1" tooltips="1" connect="1" arrows="1" fold="1" page="1" pageScale="1" pageWidth="827" pageHeight="1169" math="0" shadow="0">
      <root>
        <mxCell id="0" />
        <mxCell id="1" parent="0" />
        <mxCell id="xb_BVNKUW_JwSUMzYblN-20" value="obtención de certificados simples (forman parte de los requerimientos)" style="swimlane;startSize=20;horizontal=0;html=1;whiteSpace=wrap;" vertex="1" parent="1">
          <mxGeometry x="70" y="30" width="940" height="420" as="geometry" />
        </mxCell>
        <mxCell id="xb_BVNKUW_JwSUMzYblN-21" value="" style="swimlane;html=1;startSize=20;fontStyle=0;collapsible=0;horizontal=1;swimlaneLine=0;fillColor=none;whiteSpace=wrap;" vertex="1" parent="xb_BVNKUW_JwSUMzYblN-20">
          <mxGeometry x="20" width="920" height="230" as="geometry" />
        </mxCell>
        <mxCell id="xb_BVNKUW_JwSUMzYblN-26" style="edgeStyle=orthogonalEdgeStyle;rounded=0;orthogonalLoop=1;jettySize=auto;html=1;entryX=0;entryY=0.5;entryDx=0;entryDy=0;entryPerimeter=0;" edge="1" parent="xb_BVNKUW_JwSUMzYblN-21" source="xb_BVNKUW_JwSUMzYblN-24" target="xb_BVNKUW_JwSUMzYblN-25">
          <mxGeometry relative="1" as="geometry" />
        </mxCell>
        <mxCell id="xb_BVNKUW_JwSUMzYblN-24" value="" style="points=[[0.145,0.145,0],[0.5,0,0],[0.855,0.145,0],[1,0.5,0],[0.855,0.855,0],[0.5,1,0],[0.145,0.855,0],[0,0.5,0]];shape=mxgraph.bpmn.event;html=1;verticalLabelPosition=bottom;labelBackgroundColor=#ffffff;verticalAlign=top;align=center;perimeter=ellipsePerimeter;outlineConnect=0;aspect=fixed;outline=standard;symbol=general;" vertex="1" parent="xb_BVNKUW_JwSUMzYblN-21">
          <mxGeometry x="80" y="30" width="50" height="50" as="geometry" />
        </mxCell>
        <mxCell id="xb_BVNKUW_JwSUMzYblN-32" style="edgeStyle=orthogonalEdgeStyle;rounded=0;orthogonalLoop=1;jettySize=auto;html=1;entryX=0;entryY=0.5;entryDx=0;entryDy=0;entryPerimeter=0;" edge="1" parent="xb_BVNKUW_JwSUMzYblN-21" source="xb_BVNKUW_JwSUMzYblN-25" target="xb_BVNKUW_JwSUMzYblN-31">
          <mxGeometry relative="1" as="geometry" />
        </mxCell>
        <mxCell id="xb_BVNKUW_JwSUMzYblN-25" value="seleccionar tipo de certificado y adicionar información si fuera necesario&amp;nbsp;" style="points=[[0.25,0,0],[0.5,0,0],[0.75,0,0],[1,0.25,0],[1,0.5,0],[1,0.75,0],[0.75,1,0],[0.5,1,0],[0.25,1,0],[0,0.75,0],[0,0.5,0],[0,0.25,0]];shape=mxgraph.bpmn.task;whiteSpace=wrap;rectStyle=rounded;size=10;html=1;container=1;expand=0;collapsible=0;taskMarker=abstract;" vertex="1" parent="xb_BVNKUW_JwSUMzYblN-21">
          <mxGeometry x="174" y="15" width="120" height="80" as="geometry" />
        </mxCell>
        <mxCell id="xb_BVNKUW_JwSUMzYblN-93" style="edgeStyle=orthogonalEdgeStyle;rounded=0;orthogonalLoop=1;jettySize=auto;html=1;entryX=0;entryY=0.5;entryDx=0;entryDy=0;entryPerimeter=0;" edge="1" parent="xb_BVNKUW_JwSUMzYblN-21" source="xb_BVNKUW_JwSUMzYblN-31" target="xb_BVNKUW_JwSUMzYblN-92">
          <mxGeometry relative="1" as="geometry" />
        </mxCell>
        <mxCell id="xb_BVNKUW_JwSUMzYblN-31" value="pagar certificado" style="points=[[0.25,0,0],[0.5,0,0],[0.75,0,0],[1,0.25,0],[1,0.5,0],[1,0.75,0],[0.75,1,0],[0.5,1,0],[0.25,1,0],[0,0.75,0],[0,0.5,0],[0,0.25,0]];shape=mxgraph.bpmn.task;whiteSpace=wrap;rectStyle=rounded;size=10;html=1;container=1;expand=0;collapsible=0;taskMarker=abstract;" vertex="1" parent="xb_BVNKUW_JwSUMzYblN-21">
          <mxGeometry x="340" y="15" width="120" height="80" as="geometry" />
        </mxCell>
        <mxCell id="xb_BVNKUW_JwSUMzYblN-38" value="ingreso a la plataforma" style="text;whiteSpace=wrap;html=1;" vertex="1" parent="xb_BVNKUW_JwSUMzYblN-21">
          <mxGeometry x="72.5" y="93.75" width="65" height="40" as="geometry" />
        </mxCell>
        <mxCell id="xb_BVNKUW_JwSUMzYblN-39" value="Estudiante" style="text;whiteSpace=wrap;html=1;rotation=-90;" vertex="1" parent="xb_BVNKUW_JwSUMzYblN-21">
          <mxGeometry x="-12.5" y="97.5" width="65" height="32.5" as="geometry" />
        </mxCell>
        <mxCell id="xb_BVNKUW_JwSUMzYblN-49" style="edgeStyle=orthogonalEdgeStyle;rounded=0;orthogonalLoop=1;jettySize=auto;html=1;entryX=0;entryY=0.5;entryDx=0;entryDy=0;entryPerimeter=0;" edge="1" parent="xb_BVNKUW_JwSUMzYblN-21" source="xb_BVNKUW_JwSUMzYblN-46" target="xb_BVNKUW_JwSUMzYblN-48">
          <mxGeometry relative="1" as="geometry" />
        </mxCell>
        <mxCell id="xb_BVNKUW_JwSUMzYblN-46" value="recepcionar certificado" style="points=[[0.25,0,0],[0.5,0,0],[0.75,0,0],[1,0.25,0],[1,0.5,0],[1,0.75,0],[0.75,1,0],[0.5,1,0],[0.25,1,0],[0,0.75,0],[0,0.5,0],[0,0.25,0]];shape=mxgraph.bpmn.task;whiteSpace=wrap;rectStyle=rounded;size=10;html=1;container=1;expand=0;collapsible=0;taskMarker=abstract;" vertex="1" parent="xb_BVNKUW_JwSUMzYblN-21">
          <mxGeometry x="620" y="15" width="120" height="80" as="geometry" />
        </mxCell>
        <mxCell id="xb_BVNKUW_JwSUMzYblN-48" value="" style="points=[[0.145,0.145,0],[0.5,0,0],[0.855,0.145,0],[1,0.5,0],[0.855,0.855,0],[0.5,1,0],[0.145,0.855,0],[0,0.5,0]];shape=mxgraph.bpmn.event;html=1;verticalLabelPosition=bottom;labelBackgroundColor=#ffffff;verticalAlign=top;align=center;perimeter=ellipsePerimeter;outlineConnect=0;aspect=fixed;outline=end;symbol=terminate;" vertex="1" parent="xb_BVNKUW_JwSUMzYblN-21">
          <mxGeometry x="800" y="30" width="50" height="50" as="geometry" />
        </mxCell>
        <mxCell id="xb_BVNKUW_JwSUMzYblN-37" value="esperar de 3 a 5 días hábiles" style="text;whiteSpace=wrap;html=1;" vertex="1" parent="xb_BVNKUW_JwSUMzYblN-21">
          <mxGeometry x="485" y="90" width="100" height="40" as="geometry" />
        </mxCell>
        <mxCell id="xb_BVNKUW_JwSUMzYblN-94" style="edgeStyle=orthogonalEdgeStyle;rounded=0;orthogonalLoop=1;jettySize=auto;html=1;entryX=0;entryY=0.5;entryDx=0;entryDy=0;entryPerimeter=0;" edge="1" parent="xb_BVNKUW_JwSUMzYblN-21" source="xb_BVNKUW_JwSUMzYblN-92" target="xb_BVNKUW_JwSUMzYblN-46">
          <mxGeometry relative="1" as="geometry" />
        </mxCell>
        <mxCell id="xb_BVNKUW_JwSUMzYblN-92" value="" style="points=[[0.145,0.145,0],[0.5,0,0],[0.855,0.145,0],[1,0.5,0],[0.855,0.855,0],[0.5,1,0],[0.145,0.855,0],[0,0.5,0]];shape=mxgraph.bpmn.event;html=1;verticalLabelPosition=bottom;labelBackgroundColor=#ffffff;verticalAlign=top;align=center;perimeter=ellipsePerimeter;outlineConnect=0;aspect=fixed;outline=catching;symbol=timer;" vertex="1" parent="xb_BVNKUW_JwSUMzYblN-21">
          <mxGeometry x="510" y="30" width="50" height="50" as="geometry" />
        </mxCell>
        <mxCell id="xb_BVNKUW_JwSUMzYblN-40" value="Dirección de admisiones y registro" style="text;whiteSpace=wrap;html=1;rotation=-90;" vertex="1" parent="xb_BVNKUW_JwSUMzYblN-20">
          <mxGeometry x="-30" y="291.25" width="148.13" height="32.5" as="geometry" />
        </mxCell>
        <mxCell id="xb_BVNKUW_JwSUMzYblN-51" style="edgeStyle=orthogonalEdgeStyle;rounded=0;orthogonalLoop=1;jettySize=auto;html=1;entryX=0;entryY=0.5;entryDx=0;entryDy=0;entryPerimeter=0;" edge="1" parent="xb_BVNKUW_JwSUMzYblN-20" source="xb_BVNKUW_JwSUMzYblN-41" target="xb_BVNKUW_JwSUMzYblN-43">
          <mxGeometry relative="1" as="geometry" />
        </mxCell>
        <mxCell id="xb_BVNKUW_JwSUMzYblN-41" value="" style="points=[[0.145,0.145,0],[0.5,0,0],[0.855,0.145,0],[1,0.5,0],[0.855,0.855,0],[0.5,1,0],[0.145,0.855,0],[0,0.5,0]];shape=mxgraph.bpmn.event;html=1;verticalLabelPosition=bottom;labelBackgroundColor=#ffffff;verticalAlign=top;align=center;perimeter=ellipsePerimeter;outlineConnect=0;aspect=fixed;outline=catching;symbol=message;" vertex="1" parent="xb_BVNKUW_JwSUMzYblN-20">
          <mxGeometry x="100" y="282.5" width="50" height="50" as="geometry" />
        </mxCell>
        <mxCell id="xb_BVNKUW_JwSUMzYblN-42" value="recepción de solicitud" style="text;whiteSpace=wrap;html=1;" vertex="1" parent="xb_BVNKUW_JwSUMzYblN-20">
          <mxGeometry x="92.5" y="340" width="65" height="40" as="geometry" />
        </mxCell>
        <mxCell id="xb_BVNKUW_JwSUMzYblN-45" style="edgeStyle=orthogonalEdgeStyle;rounded=0;orthogonalLoop=1;jettySize=auto;html=1;entryX=0;entryY=0.5;entryDx=0;entryDy=0;entryPerimeter=0;" edge="1" parent="xb_BVNKUW_JwSUMzYblN-20" source="xb_BVNKUW_JwSUMzYblN-43" target="xb_BVNKUW_JwSUMzYblN-44">
          <mxGeometry relative="1" as="geometry" />
        </mxCell>
        <mxCell id="xb_BVNKUW_JwSUMzYblN-43" value="tramitar certificado" style="points=[[0.25,0,0],[0.5,0,0],[0.75,0,0],[1,0.25,0],[1,0.5,0],[1,0.75,0],[0.75,1,0],[0.5,1,0],[0.25,1,0],[0,0.75,0],[0,0.5,0],[0,0.25,0]];shape=mxgraph.bpmn.task;whiteSpace=wrap;rectStyle=rounded;size=10;html=1;container=1;expand=0;collapsible=0;taskMarker=abstract;" vertex="1" parent="xb_BVNKUW_JwSUMzYblN-20">
          <mxGeometry x="194" y="267.5" width="120" height="80" as="geometry" />
        </mxCell>
        <mxCell id="xb_BVNKUW_JwSUMzYblN-52" style="edgeStyle=orthogonalEdgeStyle;rounded=0;orthogonalLoop=1;jettySize=auto;html=1;" edge="1" parent="xb_BVNKUW_JwSUMzYblN-20" source="xb_BVNKUW_JwSUMzYblN-44" target="xb_BVNKUW_JwSUMzYblN-46">
          <mxGeometry relative="1" as="geometry" />
        </mxCell>
        <mxCell id="xb_BVNKUW_JwSUMzYblN-44" value="emitir certificado" style="points=[[0.25,0,0],[0.5,0,0],[0.75,0,0],[1,0.25,0],[1,0.5,0],[1,0.75,0],[0.75,1,0],[0.5,1,0],[0.25,1,0],[0,0.75,0],[0,0.5,0],[0,0.25,0]];shape=mxgraph.bpmn.task;whiteSpace=wrap;rectStyle=rounded;size=10;html=1;container=1;expand=0;collapsible=0;taskMarker=abstract;" vertex="1" parent="xb_BVNKUW_JwSUMzYblN-20">
          <mxGeometry x="360" y="267.5" width="120" height="80" as="geometry" />
        </mxCell>
        <mxCell id="xb_BVNKUW_JwSUMzYblN-50" style="edgeStyle=orthogonalEdgeStyle;rounded=0;orthogonalLoop=1;jettySize=auto;html=1;entryX=0.5;entryY=0;entryDx=0;entryDy=0;entryPerimeter=0;" edge="1" parent="xb_BVNKUW_JwSUMzYblN-20" source="xb_BVNKUW_JwSUMzYblN-31" target="xb_BVNKUW_JwSUMzYblN-41">
          <mxGeometry relative="1" as="geometry">
            <Array as="points">
              <mxPoint x="420" y="170" />
              <mxPoint x="125" y="170" />
            </Array>
          </mxGeometry>
        </mxCell>
        <mxCell id="xb_BVNKUW_JwSUMzYblN-54" value="obtención de certificados de estudios" style="swimlane;startSize=20;horizontal=0;html=1;whiteSpace=wrap;" vertex="1" parent="1">
          <mxGeometry x="70" y="450" width="940" height="420" as="geometry" />
        </mxCell>
        <mxCell id="xb_BVNKUW_JwSUMzYblN-55" value="" style="swimlane;html=1;startSize=20;fontStyle=0;collapsible=0;horizontal=1;swimlaneLine=0;fillColor=none;whiteSpace=wrap;" vertex="1" parent="xb_BVNKUW_JwSUMzYblN-54">
          <mxGeometry x="20" width="920" height="230" as="geometry" />
        </mxCell>
        <mxCell id="xb_BVNKUW_JwSUMzYblN-56" style="edgeStyle=orthogonalEdgeStyle;rounded=0;orthogonalLoop=1;jettySize=auto;html=1;entryX=0;entryY=0.5;entryDx=0;entryDy=0;entryPerimeter=0;" edge="1" parent="xb_BVNKUW_JwSUMzYblN-55" source="xb_BVNKUW_JwSUMzYblN-57" target="xb_BVNKUW_JwSUMzYblN-59">
          <mxGeometry relative="1" as="geometry" />
        </mxCell>
        <mxCell id="xb_BVNKUW_JwSUMzYblN-57" value="" style="points=[[0.145,0.145,0],[0.5,0,0],[0.855,0.145,0],[1,0.5,0],[0.855,0.855,0],[0.5,1,0],[0.145,0.855,0],[0,0.5,0]];shape=mxgraph.bpmn.event;html=1;verticalLabelPosition=bottom;labelBackgroundColor=#ffffff;verticalAlign=top;align=center;perimeter=ellipsePerimeter;outlineConnect=0;aspect=fixed;outline=standard;symbol=general;" vertex="1" parent="xb_BVNKUW_JwSUMzYblN-55">
          <mxGeometry x="80" y="30" width="50" height="50" as="geometry" />
        </mxCell>
        <mxCell id="xb_BVNKUW_JwSUMzYblN-58" style="edgeStyle=orthogonalEdgeStyle;rounded=0;orthogonalLoop=1;jettySize=auto;html=1;entryX=0;entryY=0.5;entryDx=0;entryDy=0;entryPerimeter=0;" edge="1" parent="xb_BVNKUW_JwSUMzYblN-55" source="xb_BVNKUW_JwSUMzYblN-59" target="xb_BVNKUW_JwSUMzYblN-61">
          <mxGeometry relative="1" as="geometry" />
        </mxCell>
        <mxCell id="xb_BVNKUW_JwSUMzYblN-59" value="elaboración de carta de solicitud" style="points=[[0.25,0,0],[0.5,0,0],[0.75,0,0],[1,0.25,0],[1,0.5,0],[1,0.75,0],[0.75,1,0],[0.5,1,0],[0.25,1,0],[0,0.75,0],[0,0.5,0],[0,0.25,0]];shape=mxgraph.bpmn.task;whiteSpace=wrap;rectStyle=rounded;size=10;html=1;container=1;expand=0;collapsible=0;taskMarker=abstract;" vertex="1" parent="xb_BVNKUW_JwSUMzYblN-55">
          <mxGeometry x="174" y="15" width="120" height="80" as="geometry" />
        </mxCell>
        <mxCell id="xb_BVNKUW_JwSUMzYblN-80" style="edgeStyle=orthogonalEdgeStyle;rounded=0;orthogonalLoop=1;jettySize=auto;html=1;entryX=0;entryY=0.5;entryDx=0;entryDy=0;entryPerimeter=0;" edge="1" parent="xb_BVNKUW_JwSUMzYblN-55" source="xb_BVNKUW_JwSUMzYblN-61" target="xb_BVNKUW_JwSUMzYblN-79">
          <mxGeometry relative="1" as="geometry" />
        </mxCell>
        <mxCell id="xb_BVNKUW_JwSUMzYblN-61" value="solicitud y adjunción de requisitos" style="points=[[0.25,0,0],[0.5,0,0],[0.75,0,0],[1,0.25,0],[1,0.5,0],[1,0.75,0],[0.75,1,0],[0.5,1,0],[0.25,1,0],[0,0.75,0],[0,0.5,0],[0,0.25,0]];shape=mxgraph.bpmn.task;whiteSpace=wrap;rectStyle=rounded;size=10;html=1;container=1;expand=0;collapsible=0;taskMarker=abstract;" vertex="1" parent="xb_BVNKUW_JwSUMzYblN-55">
          <mxGeometry x="340" y="15" width="120" height="80" as="geometry" />
        </mxCell>
        <mxCell id="xb_BVNKUW_JwSUMzYblN-64" value="ingreso a la plataforma" style="text;whiteSpace=wrap;html=1;" vertex="1" parent="xb_BVNKUW_JwSUMzYblN-55">
          <mxGeometry x="72.5" y="93.75" width="65" height="40" as="geometry" />
        </mxCell>
        <mxCell id="xb_BVNKUW_JwSUMzYblN-65" value="Estudiante" style="text;whiteSpace=wrap;html=1;rotation=-90;" vertex="1" parent="xb_BVNKUW_JwSUMzYblN-55">
          <mxGeometry x="-12.5" y="97.5" width="65" height="32.5" as="geometry" />
        </mxCell>
        <mxCell id="xb_BVNKUW_JwSUMzYblN-68" value="" style="points=[[0.145,0.145,0],[0.5,0,0],[0.855,0.145,0],[1,0.5,0],[0.855,0.855,0],[0.5,1,0],[0.145,0.855,0],[0,0.5,0]];shape=mxgraph.bpmn.event;html=1;verticalLabelPosition=bottom;labelBackgroundColor=#ffffff;verticalAlign=top;align=center;perimeter=ellipsePerimeter;outlineConnect=0;aspect=fixed;outline=end;symbol=terminate;" vertex="1" parent="xb_BVNKUW_JwSUMzYblN-55">
          <mxGeometry x="810" y="30" width="50" height="50" as="geometry" />
        </mxCell>
        <mxCell id="xb_BVNKUW_JwSUMzYblN-69" value="esperar tiempo considerable" style="text;whiteSpace=wrap;html=1;" vertex="1" parent="xb_BVNKUW_JwSUMzYblN-55">
          <mxGeometry x="672.5" y="80" width="85" height="40" as="geometry" />
        </mxCell>
        <mxCell id="xb_BVNKUW_JwSUMzYblN-84" style="edgeStyle=orthogonalEdgeStyle;rounded=0;orthogonalLoop=1;jettySize=auto;html=1;entryX=0;entryY=0.5;entryDx=0;entryDy=0;entryPerimeter=0;" edge="1" parent="xb_BVNKUW_JwSUMzYblN-55" source="xb_BVNKUW_JwSUMzYblN-79" target="xb_BVNKUW_JwSUMzYblN-83">
          <mxGeometry relative="1" as="geometry" />
        </mxCell>
        <mxCell id="xb_BVNKUW_JwSUMzYblN-79" value="presentación de requisitos de manera física" style="points=[[0.25,0,0],[0.5,0,0],[0.75,0,0],[1,0.25,0],[1,0.5,0],[1,0.75,0],[0.75,1,0],[0.5,1,0],[0.25,1,0],[0,0.75,0],[0,0.5,0],[0,0.25,0]];shape=mxgraph.bpmn.task;whiteSpace=wrap;rectStyle=rounded;size=10;html=1;container=1;expand=0;collapsible=0;taskMarker=abstract;" vertex="1" parent="xb_BVNKUW_JwSUMzYblN-55">
          <mxGeometry x="510" y="15" width="120" height="80" as="geometry" />
        </mxCell>
        <mxCell id="xb_BVNKUW_JwSUMzYblN-85" style="edgeStyle=orthogonalEdgeStyle;rounded=0;orthogonalLoop=1;jettySize=auto;html=1;entryX=0;entryY=0.5;entryDx=0;entryDy=0;entryPerimeter=0;" edge="1" parent="xb_BVNKUW_JwSUMzYblN-55" source="xb_BVNKUW_JwSUMzYblN-83" target="xb_BVNKUW_JwSUMzYblN-68">
          <mxGeometry relative="1" as="geometry" />
        </mxCell>
        <mxCell id="xb_BVNKUW_JwSUMzYblN-83" value="" style="points=[[0.145,0.145,0],[0.5,0,0],[0.855,0.145,0],[1,0.5,0],[0.855,0.855,0],[0.5,1,0],[0.145,0.855,0],[0,0.5,0]];shape=mxgraph.bpmn.event;html=1;verticalLabelPosition=bottom;labelBackgroundColor=#ffffff;verticalAlign=top;align=center;perimeter=ellipsePerimeter;outlineConnect=0;aspect=fixed;outline=boundInt;symbol=timer;" vertex="1" parent="xb_BVNKUW_JwSUMzYblN-55">
          <mxGeometry x="690" y="30" width="50" height="50" as="geometry" />
        </mxCell>
        <mxCell id="xb_BVNKUW_JwSUMzYblN-75" value="lista de observaciones" style="points=[[0.25,0,0],[0.5,0,0],[0.75,0,0],[1,0.25,0],[1,0.5,0],[1,0.75,0],[0.75,1,0],[0.5,1,0],[0.25,1,0],[0,0.75,0],[0,0.5,0],[0,0.25,0]];shape=mxgraph.bpmn.task;whiteSpace=wrap;rectStyle=rounded;size=10;html=1;container=1;expand=0;collapsible=0;taskMarker=abstract;" vertex="1" parent="xb_BVNKUW_JwSUMzYblN-55">
          <mxGeometry x="635" y="137.5" width="120" height="80" as="geometry" />
        </mxCell>
        <mxCell id="xb_BVNKUW_JwSUMzYblN-70" value="Kardex facultativo" style="text;whiteSpace=wrap;html=1;rotation=-90;" vertex="1" parent="xb_BVNKUW_JwSUMzYblN-54">
          <mxGeometry x="-10" y="291.25" width="110" height="32.5" as="geometry" />
        </mxCell>
        <mxCell id="xb_BVNKUW_JwSUMzYblN-73" value="observaciones?" style="text;whiteSpace=wrap;html=1;" vertex="1" parent="xb_BVNKUW_JwSUMzYblN-54">
          <mxGeometry x="668.13" y="365" width="93.75" height="30" as="geometry" />
        </mxCell>
        <mxCell id="xb_BVNKUW_JwSUMzYblN-91" style="edgeStyle=orthogonalEdgeStyle;rounded=0;orthogonalLoop=1;jettySize=auto;html=1;entryX=0;entryY=0.5;entryDx=0;entryDy=0;entryPerimeter=0;" edge="1" parent="xb_BVNKUW_JwSUMzYblN-54" source="xb_BVNKUW_JwSUMzYblN-77" target="xb_BVNKUW_JwSUMzYblN-87">
          <mxGeometry relative="1" as="geometry" />
        </mxCell>
        <mxCell id="xb_BVNKUW_JwSUMzYblN-77" value="recepción y verificación del cumplimiento de requisitos" style="points=[[0.25,0,0],[0.5,0,0],[0.75,0,0],[1,0.25,0],[1,0.5,0],[1,0.75,0],[0.75,1,0],[0.5,1,0],[0.25,1,0],[0,0.75,0],[0,0.5,0],[0,0.25,0]];shape=mxgraph.bpmn.task;whiteSpace=wrap;rectStyle=rounded;size=10;html=1;container=1;expand=0;collapsible=0;taskMarker=abstract;" vertex="1" parent="xb_BVNKUW_JwSUMzYblN-54">
          <mxGeometry x="530" y="300" width="120" height="80" as="geometry" />
        </mxCell>
        <mxCell id="xb_BVNKUW_JwSUMzYblN-86" style="edgeStyle=orthogonalEdgeStyle;rounded=0;orthogonalLoop=1;jettySize=auto;html=1;entryX=0.5;entryY=1;entryDx=0;entryDy=0;entryPerimeter=0;" edge="1" parent="xb_BVNKUW_JwSUMzYblN-54" source="xb_BVNKUW_JwSUMzYblN-67" target="xb_BVNKUW_JwSUMzYblN-68">
          <mxGeometry relative="1" as="geometry" />
        </mxCell>
        <mxCell id="xb_BVNKUW_JwSUMzYblN-67" value="recepción de folder y proceso de preparación" style="points=[[0.25,0,0],[0.5,0,0],[0.75,0,0],[1,0.25,0],[1,0.5,0],[1,0.75,0],[0.75,1,0],[0.5,1,0],[0.25,1,0],[0,0.75,0],[0,0.5,0],[0,0.25,0]];shape=mxgraph.bpmn.task;whiteSpace=wrap;rectStyle=rounded;size=10;html=1;container=1;expand=0;collapsible=0;taskMarker=abstract;" vertex="1" parent="xb_BVNKUW_JwSUMzYblN-54">
          <mxGeometry x="795" y="300" width="120" height="80" as="geometry" />
        </mxCell>
        <mxCell id="xb_BVNKUW_JwSUMzYblN-88" style="edgeStyle=orthogonalEdgeStyle;rounded=0;orthogonalLoop=1;jettySize=auto;html=1;entryX=0;entryY=0.5;entryDx=0;entryDy=0;entryPerimeter=0;" edge="1" parent="xb_BVNKUW_JwSUMzYblN-54" source="xb_BVNKUW_JwSUMzYblN-87" target="xb_BVNKUW_JwSUMzYblN-67">
          <mxGeometry relative="1" as="geometry" />
        </mxCell>
        <mxCell id="xb_BVNKUW_JwSUMzYblN-89" style="edgeStyle=orthogonalEdgeStyle;rounded=0;orthogonalLoop=1;jettySize=auto;html=1;entryX=0.5;entryY=1;entryDx=0;entryDy=0;entryPerimeter=0;" edge="1" parent="xb_BVNKUW_JwSUMzYblN-54" source="xb_BVNKUW_JwSUMzYblN-87" target="xb_BVNKUW_JwSUMzYblN-75">
          <mxGeometry relative="1" as="geometry" />
        </mxCell>
        <mxCell id="xb_BVNKUW_JwSUMzYblN-87" value="" style="points=[[0.25,0.25,0],[0.5,0,0],[0.75,0.25,0],[1,0.5,0],[0.75,0.75,0],[0.5,1,0],[0.25,0.75,0],[0,0.5,0]];shape=mxgraph.bpmn.gateway2;html=1;verticalLabelPosition=bottom;labelBackgroundColor=#ffffff;verticalAlign=top;align=center;perimeter=rhombusPerimeter;outlineConnect=0;outline=none;symbol=none;gwType=exclusive;" vertex="1" parent="xb_BVNKUW_JwSUMzYblN-54">
          <mxGeometry x="690" y="315" width="50" height="50" as="geometry" />
        </mxCell>
        <mxCell id="xb_BVNKUW_JwSUMzYblN-90" style="edgeStyle=orthogonalEdgeStyle;rounded=0;orthogonalLoop=1;jettySize=auto;html=1;entryX=0.5;entryY=0;entryDx=0;entryDy=0;entryPerimeter=0;" edge="1" parent="xb_BVNKUW_JwSUMzYblN-54" source="xb_BVNKUW_JwSUMzYblN-79" target="xb_BVNKUW_JwSUMzYblN-77">
          <mxGeometry relative="1" as="geometry" />
        </mxCell>
      </root>
    </mxGraphModel>
  </diagram>
</mxfile>
